# xmcd
#
# Track frame offsets:
#	150
#	16153
#	34370
#	47617
#	65255
#	78512
#	95979
#	110519
#	124587
#	141794
#	156353
#	171944
#	189067
#	201961
#	216336
#	232115
#	249553
#	266089
#	281940
#	296557
#
# Disc length: 4185 seconds
# Revision: 0
# Processed by: cddbd v1.5.2PL0 Copyright (c) Steve Scherf et al.
# Submitted via: dBpowerAMP V12.0
#
DISCID=33105714
DTITLE=Various Artist - Country Radio May 2010
DYEAR=2010
DGENRE=Country
TTITLE0=Brad Paisley - Water
TTITLE1=Taylor Swift - Today Was A Fairytale
TTITLE2=Doc Walker - I'm Gonna Make You Love Me
TTITLE3=Jo Hikk - Shame On The Moon
TTITLE4=Carrie Underwood - Undo It
TTITLE5=GAry Allan - Get Off On The Pain
TTITLE6=Jessie Farrell - Heart Of Gold
TTITLE7=Josh Turner - All Over Me
TTITLE8=Ladies Of The Canyon - Follow Me Down
TTITLE9=Jerrod Niemann - Lover Lover
TTITLE10=Laura Bell Bundy - Giddy On Up
TTITLE11=Sandra Laratta - Better Than Beautiful
TTITLE12=Little Big Town - Little White Church
TTITLE13=Marshall Dane - Love and Alcohol
TTITLE14=Mike Gouchie - Didn't Get A Damn Thing Done
TTITLE15=Dean Brody - Wildflower
TTITLE16=Shane Yellowbird - Watching You Walk Away
TTITLE17=Toby Keith - Every Dog Has It's Day
TTITLE18=Trailer Choir - Rollin Through The Sunshine
TTITLE19=Ambush - Take My Picture
EXTD=
EXTT0=
EXTT1=
EXTT2=
EXTT3=
EXTT4=
EXTT5=
EXTT6=
EXTT7=
EXTT8=
EXTT9=
EXTT10=
EXTT11=
EXTT12=
EXTT13=
EXTT14=
EXTT15=
EXTT16=
EXTT17=
EXTT18=
EXTT19=
PLAYORDER=
